<svg width="33" height="33" viewBox="0 0 33 33" fill="none" xmlns="http://www.w3.org/2000/svg">
<path d="M7.26426 25.2445C7.90108 25.2462 8.53192 25.1217 9.12032 24.8781C9.70872 24.6346 10.243 24.2768 10.6923 23.8256L15.6426 18.8756C15.8177 18.708 16.0507 18.6145 16.2931 18.6145C16.5354 18.6145 16.7684 18.708 16.9435 18.8756L21.9116 23.8434C22.3609 24.2947 22.8952 24.6525 23.4836 24.8961C24.072 25.1397 24.7029 25.2642 25.3397 25.2624H26.316L20.0457 31.5324C19.1053 32.4721 17.8302 33 16.5007 33C15.1712 33 13.8961 32.4721 12.9557 31.5324L6.66885 25.2445H7.26426ZM25.3397 7.73677C24.7029 7.7351 24.0721 7.85965 23.4837 8.10321C22.8953 8.34676 22.361 8.70451 21.9116 9.15576L16.9435 14.125C16.7708 14.2971 16.5369 14.3938 16.2931 14.3938C16.0492 14.3938 15.8153 14.2971 15.6426 14.125L10.6923 9.17501C10.2431 8.72351 9.70889 8.36551 9.12048 8.12172C8.53207 7.87792 7.90118 7.75316 7.26426 7.75465H6.66747L12.9557 1.46819C13.8959 0.528117 15.1711 0 16.5007 0C17.8303 0 19.1054 0.528117 20.0457 1.46819L26.3147 7.73677H25.3397ZM1.46828 12.9549L5.21126 9.21076H7.26288C8.16179 9.21311 9.0235 9.56983 9.66103 10.2035L14.6113 15.1535C15.0573 15.5981 15.6613 15.8477 16.291 15.8477C16.9207 15.8477 17.5247 15.5981 17.9707 15.1535L22.9402 10.1856C23.5774 9.55133 24.4392 9.19408 25.3383 9.19151H27.7681L31.5317 12.9549C32.4718 13.895 33 15.1701 33 16.4996C33 17.8291 32.4718 19.1042 31.5317 20.0443L27.7695 23.8063H25.3383C24.4394 23.8041 23.5776 23.4474 22.9402 22.8136L17.972 17.8457C17.5193 17.4137 16.9175 17.1726 16.2917 17.1726C15.6658 17.1726 15.0641 17.4137 14.6113 17.8457L9.66103 22.7957C9.0235 23.4294 8.16179 23.7861 7.26288 23.7884H5.21263L1.46828 20.0443C0.528152 19.1042 0 17.8291 0 16.4996C0 15.1701 0.528152 13.895 1.46828 12.9549Z" fill="#515151"/>
</svg>
