<svg width="38" height="49" viewBox="0 0 38 49" fill="none" xmlns="http://www.w3.org/2000/svg">
<path d="M12.5735 38.5C14.5735 41 19.9735 44.5 25.5735 38.5" stroke="#287EBB" stroke-width="2"/>
<path d="M27.5734 8.00014C24.3734 7.20014 20.5734 9.00014 19.0734 10.0001C17.7401 9.00019 14.1734 7.20025 10.5734 8.00014M27.5734 8.00014C31.5734 9.00014 43.0734 18.2534 32.5734 29.1267M27.5734 8.00014C27.2401 5.66676 25.0735 1 19.0734 1C13.0734 1 10.9067 5.66676 10.5734 8.00014M32.5734 29.1267C33.3023 29.2916 33.9783 29.4151 34.5734 29.5001L36.0734 31.0001V36.5001L32.5734 38.0001C31.5734 41.3335 27.4734 48.0001 19.0734 48.0001C10.6734 48.0001 6.24008 41.3335 5.07342 38.0001L1.07342 36.5001V31.0001L3.07342 29.5001C3.76556 29.4203 4.43201 29.3178 5.07342 29.1953M32.5734 29.1267C27.5868 27.9985 20.1204 24.9329 19.0734 19.0001C18.14 21.8005 14.0697 27.4762 5.07342 29.1953M10.5734 8.00014C6.07342 9 -4.92658 18.8905 5.07342 29.1953" stroke="#287EBB" stroke-width="2"/>
<path d="M16.5735 31.5H8.57349C8.57349 32.8333 9.37349 35.5 12.5735 35.5C15.7735 35.5 16.5735 32.8333 16.5735 31.5Z" stroke="#287EBB" stroke-width="2"/>
<path d="M29.5735 31.5H21.5735C21.5735 32.8333 22.3735 35.5 25.5735 35.5C28.7735 35.5 29.5735 32.8333 29.5735 31.5Z" stroke="#287EBB" stroke-width="2"/>
<path d="M16.5735 31.5C16.5735 30.8333 17.0735 29.5 19.0735 29.5C21.0735 29.5 21.5735 30.8333 21.5735 31.5" stroke="#287EBB" stroke-width="2"/>
</svg>
