<svg width="26" height="20" viewBox="0 0 26 20" fill="none" xmlns="http://www.w3.org/2000/svg">
<path d="M2.4375 0.00012207C1.0918 0.00012207 0 1.11991 0 2.50012C0 3.28658 0.360547 4.02616 0.975 4.50012L12.025 13.0001C12.6039 13.4428 13.3961 13.4428 13.975 13.0001L25.025 4.50012C25.6395 4.02616 26 3.28658 26 2.50012C26 1.11991 24.9082 0.00012207 23.5625 0.00012207H2.4375ZM0 5.83346V16.6668C0 18.5053 1.45742 20.0001 3.25 20.0001H22.75C24.5426 20.0001 26 18.5053 26 16.6668V5.83346L14.95 14.3335C13.7922 15.2241 12.2078 15.2241 11.05 14.3335L0 5.83346Z" fill="#F9F9F9"/>
</svg>
