<svg width="118" height="118" viewBox="0 0 118 118" fill="none" xmlns="http://www.w3.org/2000/svg">
<path d="M59 0C91.5848 0 118 26.4152 118 59C118 91.5848 91.5848 118 59 118C26.4152 118 0 91.5848 0 59C0 26.4152 26.4152 0 59 0ZM89.3916 29.793C86.6059 27.711 82.6954 28.1988 80.5 30.8457L80.293 31.1084L49.4121 72.4277L36.7188 59.0293L36.4824 58.793C33.9941 56.4194 30.054 56.3895 27.5293 58.7812C25.0048 61.173 24.822 65.1088 27.0576 67.7217L27.2812 67.9707L45.2812 86.9707L50.5879 92.5713L55.207 86.3916L90.707 38.8916L90.9004 38.6182C92.8168 35.763 92.1772 31.8748 89.3916 29.793Z" fill="#3AB54A"/>
</svg>
