<svg width="46" height="46" viewBox="0 0 46 46" fill="none" xmlns="http://www.w3.org/2000/svg">
<circle cx="23" cy="23" r="23" fill="#0B3C5D"/>
<path d="M18.951 30V28.7216L23.7521 23.4659C24.3156 22.8504 24.7796 22.3153 25.1442 21.8608C25.5088 21.4015 25.7786 20.9706 25.9538 20.5682C26.1338 20.161 26.2237 19.7348 26.2237 19.2898C26.2237 18.7784 26.1006 18.3357 25.8544 17.9616C25.6129 17.5876 25.2815 17.2988 24.8601 17.0952C24.4387 16.8916 23.9652 16.7898 23.4396 16.7898C22.8809 16.7898 22.3932 16.9058 21.9766 17.1378C21.5646 17.3651 21.245 17.6847 21.0178 18.0966C20.7952 18.5085 20.6839 18.9915 20.6839 19.5455H19.0078C19.0078 18.6932 19.2043 17.9451 19.5973 17.3011C19.9903 16.6572 20.5253 16.1553 21.2024 15.7955C21.8842 15.4356 22.6489 15.2557 23.4964 15.2557C24.3487 15.2557 25.1039 15.4356 25.7621 15.7955C26.4202 16.1553 26.9363 16.6406 27.3104 17.2514C27.6844 17.8622 27.8714 18.5417 27.8714 19.2898C27.8714 19.8248 27.7744 20.348 27.5803 20.8594C27.3909 21.366 27.0594 21.9318 26.5859 22.5568C26.1172 23.1771 25.4661 23.9347 24.6328 24.8295L21.3658 28.3239V28.4375H28.1271V30H18.951Z" fill="#E4E4E4"/>
</svg>
