<svg width="190" height="54" viewBox="0 0 190 54" fill="none" xmlns="http://www.w3.org/2000/svg">
<path d="M12.5735 41.5C14.5735 44 19.9735 47.5 25.5735 41.5" stroke="white" stroke-width="2"/>
<path d="M27.5734 11.0001C24.3734 10.2001 20.5734 12.0001 19.0734 13.0001C17.7401 12.0002 14.1734 10.2003 10.5734 11.0001M27.5734 11.0001C31.5734 12.0001 43.0734 21.2534 32.5734 32.1267M27.5734 11.0001C27.2401 8.66676 25.0735 4 19.0734 4C13.0734 4 10.9067 8.66676 10.5734 11.0001M32.5734 32.1267C33.3023 32.2916 33.9783 32.4151 34.5734 32.5001L36.0734 34.0001V39.5001L32.5734 41.0001C31.5734 44.3335 27.4734 51.0001 19.0734 51.0001C10.6734 51.0001 6.24008 44.3335 5.07342 41.0001L1.07342 39.5001V34.0001L3.07342 32.5001C3.76556 32.4203 4.43201 32.3178 5.07342 32.1953M32.5734 32.1267C27.5868 30.9985 20.1204 27.9329 19.0734 22.0001C18.14 24.8005 14.0697 30.4762 5.07342 32.1953M10.5734 11.0001C6.07342 12 -4.92658 21.8905 5.07342 32.1953" stroke="white" stroke-width="2"/>
<path d="M16.5735 34.5H8.57349C8.57349 35.8333 9.37349 38.5 12.5735 38.5C15.7735 38.5 16.5735 35.8333 16.5735 34.5Z" stroke="white" stroke-width="2"/>
<path d="M29.5735 34.5H21.5735C21.5735 35.8333 22.3735 38.5 25.5735 38.5C28.7735 38.5 29.5735 35.8333 29.5735 34.5Z" stroke="white" stroke-width="2"/>
<path d="M16.5735 34.5C16.5735 33.8333 17.0735 32.5 19.0735 32.5C21.0735 32.5 21.5735 33.8333 21.5735 34.5" stroke="white" stroke-width="2"/>
<path d="M49.9873 13.7964H55.3184L53.9727 9.31934C53.4378 7.52507 53.0238 6.08447 52.7305 4.99756H52.5752C52.1784 6.49854 51.7729 7.93913 51.3589 9.31934L49.9873 13.7964ZM42.8965 22L50.3755 0.805176H54.9561L62.4351 22H57.9062L56.4053 17.2642H48.9263L47.4253 22H42.8965ZM62.9268 14.2104C62.9268 11.6571 63.6169 9.64714 64.9971 8.18066C66.3773 6.69694 68.137 5.95508 70.2764 5.95508C71.9326 5.95508 73.3042 6.46403 74.3911 7.48193C75.478 8.49984 76.1509 9.63851 76.4097 10.8979L72.916 11.8555C72.7435 11.2171 72.4416 10.665 72.0103 10.1992C71.5789 9.71615 71.0269 9.47461 70.354 9.47461C69.3188 9.47461 68.5339 9.92318 67.999 10.8203C67.4642 11.7174 67.1968 12.8475 67.1968 14.2104C67.1968 15.7459 67.4901 16.9191 68.0767 17.73C68.6805 18.5409 69.4396 18.9463 70.354 18.9463C71.1131 18.9463 71.7515 18.6875 72.269 18.1699C72.7866 17.6523 73.123 17.0571 73.2783 16.3843L76.772 17.3159C76.4787 18.6616 75.7282 19.8607 74.5205 20.9131C73.3128 21.9482 71.8981 22.4658 70.2764 22.4658C68.1025 22.4658 66.3341 21.7153 64.9712 20.2144C63.6082 18.7134 62.9268 16.7121 62.9268 14.2104ZM82.2324 14.2104C82.2324 15.9185 82.5516 17.1348 83.1899 17.8594C83.8283 18.584 84.5356 18.9463 85.312 18.9463C85.6398 18.9463 85.959 18.8773 86.2695 18.7393C86.5973 18.584 86.9251 18.3511 87.2529 18.0405C87.5807 17.7127 87.8481 17.221 88.0552 16.5654C88.2622 15.8926 88.3657 15.1076 88.3657 14.2104C88.3657 13.2961 88.2622 12.5111 88.0552 11.8555C87.8654 11.1999 87.598 10.7082 87.2529 10.3804C86.9251 10.0526 86.5973 9.81966 86.2695 9.68164C85.959 9.54362 85.6398 9.47461 85.312 9.47461C84.5356 9.47461 83.8283 9.83691 83.1899 10.5615C82.5516 11.2689 82.2324 12.4852 82.2324 14.2104ZM77.9883 14.2104C77.9883 13.1408 78.1263 12.1315 78.4023 11.1826C78.6784 10.2165 79.0924 9.33659 79.6445 8.54297C80.2139 7.74935 80.9816 7.11963 81.9478 6.65381C82.9312 6.18799 84.0526 5.95508 85.312 5.95508C86.5715 5.95508 87.6842 6.18799 88.6504 6.65381C89.6165 7.11963 90.3757 7.74935 90.9277 8.54297C91.4971 9.33659 91.9198 10.2165 92.1958 11.1826C92.4718 12.1315 92.6099 13.1408 92.6099 14.2104C92.6099 14.9006 92.5495 15.5907 92.4287 16.2808C92.3079 16.9536 92.075 17.6782 91.73 18.4546C91.4022 19.2137 90.9795 19.8866 90.4619 20.4731C89.9443 21.0425 89.237 21.5169 88.3398 21.8965C87.46 22.276 86.4507 22.4658 85.312 22.4658C84.1906 22.4658 83.1899 22.2847 82.3101 21.9224C81.4302 21.5601 80.7228 21.1029 80.188 20.5508C79.6532 19.9814 79.2132 19.3258 78.8682 18.584C78.5404 17.8249 78.3075 17.0916 78.1694 16.3843C78.0487 15.6769 77.9883 14.9523 77.9883 14.2104ZM94.9907 22V6.4209H98.9502V7.94775H98.9761C99.8215 6.6193 101.141 5.95508 102.936 5.95508C106.369 5.95508 108.085 7.97363 108.085 12.0107V22H103.971V12.5024C103.971 11.3983 103.815 10.6219 103.505 10.1733C103.194 9.70752 102.703 9.47461 102.03 9.47461C101.167 9.47461 100.468 9.82829 99.9336 10.5356C99.3988 11.2257 99.1313 12.097 99.1313 13.1494V22H94.9907ZM110.285 14.2104C110.285 11.6571 110.975 9.64714 112.355 8.18066C113.736 6.69694 115.495 5.95508 117.635 5.95508C119.291 5.95508 120.663 6.46403 121.75 7.48193C122.836 8.49984 123.509 9.63851 123.768 10.8979L120.274 11.8555C120.102 11.2171 119.8 10.665 119.369 10.1992C118.937 9.71615 118.385 9.47461 117.712 9.47461C116.677 9.47461 115.892 9.92318 115.357 10.8203C114.823 11.7174 114.555 12.8475 114.555 14.2104C114.555 15.7459 114.848 16.9191 115.435 17.73C116.039 18.5409 116.798 18.9463 117.712 18.9463C118.472 18.9463 119.11 18.6875 119.627 18.1699C120.145 17.6523 120.481 17.0571 120.637 16.3843L124.13 17.3159C123.837 18.6616 123.087 19.8607 121.879 20.9131C120.671 21.9482 119.257 22.4658 117.635 22.4658C115.461 22.4658 113.693 21.7153 112.33 20.2144C110.967 18.7134 110.285 16.7121 110.285 14.2104ZM126.304 22V0.158203H130.393V7.43018H130.471C131.402 6.44678 132.593 5.95508 134.042 5.95508C134.715 5.95508 135.345 6.05859 135.931 6.26562C136.535 6.47266 137.096 6.80046 137.613 7.24902C138.148 7.68034 138.571 8.31006 138.881 9.13818C139.192 9.94906 139.347 10.9066 139.347 12.0107V22H135.207V12.4766C135.207 10.4753 134.568 9.47461 133.292 9.47461C132.446 9.47461 131.747 9.85417 131.195 10.6133C130.66 11.3551 130.393 12.235 130.393 13.2529V22H126.304ZM141.547 14.1587C141.547 11.6226 142.254 9.62126 143.669 8.15479C145.084 6.68831 146.835 5.95508 148.922 5.95508C150.941 5.95508 152.649 6.71419 154.046 8.23242C155.461 9.7334 156.168 11.7088 156.168 14.1587C156.168 14.659 156.143 15.1593 156.091 15.6597H145.739C145.739 16.6431 146.05 17.4798 146.671 18.1699C147.292 18.8428 148.129 19.1792 149.181 19.1792C149.958 19.1792 150.63 18.9894 151.2 18.6099C151.786 18.2131 152.226 17.7127 152.52 17.1089L155.961 18.3252C155.444 19.4811 154.598 20.4645 153.425 21.2754C152.252 22.069 150.794 22.4658 149.052 22.4658C146.861 22.4658 145.058 21.7153 143.643 20.2144C142.246 18.7134 141.547 16.6948 141.547 14.1587ZM145.765 12.8389H151.95C151.95 11.8382 151.683 10.9842 151.148 10.2769C150.63 9.55225 149.889 9.18994 148.922 9.18994C147.939 9.18994 147.163 9.55225 146.593 10.2769C146.041 11.0015 145.765 11.8555 145.765 12.8389ZM162.043 13.8999C162.043 15.3319 162.302 16.4274 162.819 17.1865C163.337 17.9284 164.018 18.2993 164.864 18.2993C165.709 18.2993 166.382 17.9284 166.882 17.1865C167.383 16.4447 167.633 15.3491 167.633 13.8999C167.633 12.4679 167.374 11.3724 166.856 10.6133C166.356 9.85417 165.692 9.47461 164.864 9.47461C164.001 9.47461 163.311 9.86279 162.793 10.6392C162.293 11.3983 162.043 12.4852 162.043 13.8999ZM157.799 13.9258C157.799 11.4759 158.411 9.53499 159.636 8.10303C160.878 6.67106 162.44 5.95508 164.32 5.95508C165.131 5.95508 165.821 6.14486 166.391 6.52441C166.96 6.90397 167.374 7.31803 167.633 7.7666V6.4209H171.773V19.645C171.773 22.578 171.17 24.7345 169.962 26.1147C168.771 27.5122 166.96 28.2109 164.527 28.2109C161.819 28.2109 159.731 27.1758 158.265 25.1055L160.956 23.1904C161.905 24.3464 163.121 24.9243 164.605 24.9243C165.381 24.9243 166.054 24.6396 166.624 24.0703C167.21 23.501 167.538 22.7677 167.607 21.8706C167.659 21.2495 167.685 20.7492 167.685 20.3696C167.374 20.7837 166.9 21.1287 166.261 21.4048C165.64 21.6808 165.036 21.8188 164.45 21.8188C162.483 21.8188 160.878 21.1029 159.636 19.6709C158.411 18.2389 157.799 16.3239 157.799 13.9258ZM178.295 14.2104C178.295 15.9185 178.614 17.1348 179.252 17.8594C179.891 18.584 180.598 18.9463 181.375 18.9463C181.702 18.9463 182.021 18.8773 182.332 18.7393C182.66 18.584 182.988 18.3511 183.315 18.0405C183.643 17.7127 183.911 17.221 184.118 16.5654C184.325 15.8926 184.428 15.1076 184.428 14.2104C184.428 13.2961 184.325 12.5111 184.118 11.8555C183.928 11.1999 183.66 10.7082 183.315 10.3804C182.988 10.0526 182.66 9.81966 182.332 9.68164C182.021 9.54362 181.702 9.47461 181.375 9.47461C180.598 9.47461 179.891 9.83691 179.252 10.5615C178.614 11.2689 178.295 12.4852 178.295 14.2104ZM174.051 14.2104C174.051 13.1408 174.189 12.1315 174.465 11.1826C174.741 10.2165 175.155 9.33659 175.707 8.54297C176.276 7.74935 177.044 7.11963 178.01 6.65381C178.994 6.18799 180.115 5.95508 181.375 5.95508C182.634 5.95508 183.747 6.18799 184.713 6.65381C185.679 7.11963 186.438 7.74935 186.99 8.54297C187.56 9.33659 187.982 10.2165 188.258 11.1826C188.534 12.1315 188.672 13.1408 188.672 14.2104C188.672 14.9006 188.612 15.5907 188.491 16.2808C188.37 16.9536 188.138 17.6782 187.792 18.4546C187.465 19.2137 187.042 19.8866 186.524 20.4731C186.007 21.0425 185.299 21.5169 184.402 21.8965C183.522 22.276 182.513 22.4658 181.375 22.4658C180.253 22.4658 179.252 22.2847 178.373 21.9224C177.493 21.5601 176.785 21.1029 176.25 20.5508C175.716 19.9814 175.276 19.3258 174.931 18.584C174.603 17.8249 174.37 17.0916 174.232 16.3843C174.111 15.6769 174.051 14.9523 174.051 14.2104ZM56.3711 30.4609V45.1719C56.3711 46.1654 56.3984 46.7533 56.4531 46.9355C56.526 47.2363 56.6628 47.4596 56.8633 47.6055C57.0729 47.7513 57.4329 47.8424 57.9434 47.8789V48.3301L52.543 49.3828V47.3594C51.8958 48.1432 51.3171 48.6764 50.8066 48.959C50.3053 49.2415 49.7357 49.3828 49.0977 49.3828C47.4661 49.3828 46.1764 48.6536 45.2285 47.1953C44.4629 46.0104 44.0801 44.5566 44.0801 42.834C44.0801 41.4577 44.3171 40.2272 44.791 39.1426C45.265 38.0488 45.9121 37.224 46.7324 36.668C47.5618 36.112 48.4505 35.834 49.3984 35.834C50.0091 35.834 50.5514 35.9525 51.0254 36.1895C51.4993 36.4264 52.0052 36.8411 52.543 37.4336V33.5781C52.543 32.6029 52.502 32.015 52.4199 31.8145C52.3105 31.5501 52.1465 31.3542 51.9277 31.2266C51.709 31.099 51.2988 31.0352 50.6973 31.0352V30.4609H56.3711ZM52.543 39.1289C51.8685 37.8346 51.0436 37.1875 50.0684 37.1875C49.7311 37.1875 49.4531 37.2786 49.2344 37.4609C48.8971 37.7435 48.6191 38.2402 48.4004 38.9512C48.1908 39.6621 48.0859 40.7513 48.0859 42.2188C48.0859 43.832 48.2044 45.026 48.4414 45.8008C48.6784 46.5755 49.002 47.1361 49.4121 47.4824C49.6217 47.6556 49.9089 47.7422 50.2734 47.7422C51.0755 47.7422 51.832 47.1133 52.543 45.8555V39.1289ZM66.024 47.1133C64.4654 48.4896 63.0663 49.1777 61.8267 49.1777C61.0976 49.1777 60.4914 48.9408 60.0084 48.4668C59.5253 47.9837 59.2837 47.3822 59.2837 46.6621C59.2837 45.6868 59.703 44.8118 60.5416 44.0371C61.3801 43.2533 63.2076 42.2142 66.024 40.9199V39.6348C66.024 38.6686 65.9693 38.0625 65.8599 37.8164C65.7597 37.5612 65.5637 37.3424 65.272 37.1602C64.9804 36.9688 64.6522 36.873 64.2877 36.873C63.6952 36.873 63.2076 37.0052 62.8248 37.2695C62.5878 37.4336 62.4693 37.625 62.4693 37.8438C62.4693 38.0352 62.5969 38.2721 62.8521 38.5547C63.1985 38.9466 63.3716 39.3249 63.3716 39.6895C63.3716 40.1361 63.203 40.5189 62.8658 40.8379C62.5377 41.1478 62.1047 41.3027 61.567 41.3027C60.9927 41.3027 60.5097 41.1296 60.1177 40.7832C59.7349 40.4368 59.5435 40.0312 59.5435 39.5664C59.5435 38.9102 59.8033 38.2858 60.3228 37.6934C60.8423 37.0918 61.567 36.6315 62.4966 36.3125C63.4263 35.9935 64.3925 35.834 65.3951 35.834C66.6073 35.834 67.5643 36.0938 68.2662 36.6133C68.9771 37.1237 69.4374 37.6797 69.647 38.2812C69.7746 38.6641 69.8384 39.5436 69.8384 40.9199V45.8828C69.8384 46.4661 69.8612 46.8353 69.9068 46.9902C69.9524 47.1361 70.0207 47.2454 70.1119 47.3184C70.203 47.3913 70.3078 47.4277 70.4263 47.4277C70.6633 47.4277 70.9048 47.2591 71.1509 46.9219L71.5611 47.25C71.1054 47.9245 70.6314 48.4167 70.1392 48.7266C69.6561 49.0273 69.1047 49.1777 68.4849 49.1777C67.7558 49.1777 67.1861 49.0091 66.7759 48.6719C66.3658 48.3255 66.1151 47.806 66.024 47.1133ZM66.024 46.1152V41.8359C64.9211 42.4831 64.1008 43.1758 63.563 43.9141C63.2076 44.4062 63.0298 44.903 63.0298 45.4043C63.0298 45.8236 63.1802 46.1927 63.481 46.5117C63.7089 46.7578 64.0279 46.8809 64.438 46.8809C64.8938 46.8809 65.4224 46.6257 66.024 46.1152ZM97.32 30.4609V30.9668C96.6455 31.0762 96.044 31.4362 95.5153 32.0469C95.1325 32.5026 94.5628 33.5736 93.8063 35.2598L87.4216 49.4238H86.9704L80.613 34.6855C79.8473 32.9082 79.3324 31.8646 79.068 31.5547C78.8128 31.2448 78.3252 31.0488 77.6052 30.9668V30.4609H86.4919V30.9668H86.1911C85.389 30.9668 84.8421 31.0671 84.5505 31.2676C84.3408 31.4043 84.236 31.6048 84.236 31.8691C84.236 32.0332 84.2725 32.2292 84.3454 32.457C84.4183 32.6758 84.6644 33.2728 85.0837 34.248L89.0348 43.4766L92.6989 35.2598C93.1364 34.2663 93.4053 33.6009 93.5055 33.2637C93.6058 32.9264 93.6559 32.6393 93.6559 32.4023C93.6559 32.1289 93.583 31.8874 93.4372 31.6777C93.2914 31.4681 93.0772 31.3086 92.7946 31.1992C92.4027 31.0443 91.8832 30.9668 91.236 30.9668V30.4609H97.32ZM101.463 35.834C102.575 35.834 103.61 36.1211 104.567 36.6953C105.524 37.2695 106.248 38.0853 106.74 39.1426C107.242 40.1999 107.492 41.3574 107.492 42.6152C107.492 44.429 107.032 45.9466 106.112 47.168C105 48.6445 103.464 49.3828 101.504 49.3828C99.581 49.3828 98.0998 48.7083 97.0608 47.3594C96.0217 46.0104 95.5022 44.4473 95.5022 42.6699C95.5022 40.8379 96.0308 39.2428 97.0881 37.8848C98.1545 36.5176 99.6129 35.834 101.463 35.834ZM101.518 36.8047C101.053 36.8047 100.652 36.9824 100.315 37.3379C99.9866 37.6842 99.7678 38.377 99.6584 39.416C99.5582 40.446 99.508 41.8815 99.508 43.7227C99.508 44.6979 99.5718 45.6094 99.6995 46.457C99.7997 47.1042 100.014 47.5964 100.342 47.9336C100.67 48.2708 101.044 48.4395 101.463 48.4395C101.873 48.4395 102.215 48.3255 102.489 48.0977C102.844 47.7878 103.081 47.3548 103.199 46.7988C103.382 45.9329 103.473 44.1829 103.473 41.5488C103.473 39.9993 103.386 38.9375 103.213 38.3633C103.04 37.7799 102.785 37.3561 102.447 37.0918C102.211 36.9004 101.901 36.8047 101.518 36.8047ZM114.643 49.3828L110.337 39.4707C109.817 38.2767 109.412 37.5202 109.12 37.2012C108.91 36.9642 108.6 36.8047 108.19 36.7227V36.2168H114.985V36.7227C114.557 36.7227 114.265 36.8001 114.11 36.9551C113.891 37.1556 113.782 37.3926 113.782 37.666C113.782 38.0033 113.983 38.6367 114.384 39.5664L116.489 44.3652L118.171 40.2227C118.654 39.0378 118.895 38.1992 118.895 37.707C118.895 37.4245 118.79 37.1966 118.581 37.0234C118.38 36.8411 118.02 36.7409 117.501 36.7227V36.2168H121.684V36.7227C121.283 36.7773 120.955 36.9277 120.7 37.1738C120.445 37.4199 120.062 38.1445 119.552 39.3477L115.286 49.3828H114.643ZM128.343 35.834C129.455 35.834 130.49 36.1211 131.447 36.6953C132.404 37.2695 133.128 38.0853 133.62 39.1426C134.122 40.1999 134.372 41.3574 134.372 42.6152C134.372 44.429 133.912 45.9466 132.992 47.168C131.88 48.6445 130.344 49.3828 128.384 49.3828C126.461 49.3828 124.98 48.7083 123.941 47.3594C122.902 46.0104 122.382 44.4473 122.382 42.6699C122.382 40.8379 122.911 39.2428 123.968 37.8848C125.035 36.5176 126.493 35.834 128.343 35.834ZM128.398 36.8047C127.933 36.8047 127.532 36.9824 127.195 37.3379C126.867 37.6842 126.648 38.377 126.538 39.416C126.438 40.446 126.388 41.8815 126.388 43.7227C126.388 44.6979 126.452 45.6094 126.579 46.457C126.68 47.1042 126.894 47.5964 127.222 47.9336C127.55 48.2708 127.924 48.4395 128.343 48.4395C128.753 48.4395 129.095 48.3255 129.369 48.0977C129.724 47.7878 129.961 47.3548 130.079 46.7988C130.262 45.9329 130.353 44.1829 130.353 41.5488C130.353 39.9993 130.266 38.9375 130.093 38.3633C129.92 37.7799 129.665 37.3561 129.327 37.0918C129.091 36.9004 128.781 36.8047 128.398 36.8047ZM132.513 29.832L127.988 34.5762H126.812L128.398 29.832H132.513Z" fill="white"/>
</svg>
