<svg width="30" height="32" viewBox="0 0 30 32" fill="none" xmlns="http://www.w3.org/2000/svg">
<path d="M17.9436 25.9924H19.5506C19.9924 25.9924 20.3503 25.6583 20.3503 25.2459V11.7449C20.3503 11.3326 19.9924 10.9984 19.5506 10.9984H17.9436C17.5019 10.9984 17.1439 11.3326 17.1439 11.7449V25.2388C17.1363 25.6583 17.4943 25.9924 17.9436 25.9924ZM28.9185 4.998H23.4044L21.1272 1.45745C20.5484 0.554543 19.4973 0 18.3701 0H11.6222C10.4951 0 9.44402 0.554543 8.8652 1.45745L6.58797 4.998H1.07388C0.479817 4.998 0 5.4459 0 6.00044V7.00289C0 7.55743 0.479817 8.00533 1.07388 8.00533H2.14775V28.9998C2.14775 30.6563 3.58721 32 5.36177 32H24.6382C26.4128 32 27.8522 30.6563 27.8522 28.9998V7.99822H28.9261C29.5202 7.99822 30 7.55032 30 6.99578V5.99333C29.9924 5.4459 29.5126 4.998 28.9185 4.998ZM11.508 3.17796C11.5842 3.06421 11.7136 2.99311 11.8507 2.99311H18.1417C18.2864 2.99311 18.4158 3.06421 18.4844 3.17796L19.6497 4.998H10.3351L11.508 3.17796ZM24.6382 28.9927H5.35415V7.99822H24.6306V28.9927H24.6382ZM10.4417 25.9924H12.0487C12.4905 25.9924 12.8484 25.6583 12.8484 25.2459V11.7449C12.8484 11.3326 12.4905 10.9984 12.0487 10.9984H10.4417C10 10.9984 9.64204 11.3326 9.64204 11.7449V25.2388C9.64204 25.6583 10 25.9924 10.4417 25.9924Z" fill="#888888"/>
</svg>
