<svg width="30" height="30" viewBox="0 0 30 30" fill="none" xmlns="http://www.w3.org/2000/svg">
<path d="M3.77927 22.6024C5.19512 22.9149 6.12805 23.4863 6.57732 24.3161C7.02658 25.1466 7.29951 25.781 7.39683 26.2207L2.5778 27.4222L3.77927 22.6024ZM9.08195 25.2249C8.75694 24.2169 8.19719 23.3006 7.44878 22.5512C6.69944 21.8028 5.78308 21.2431 4.77512 20.918L20.6246 5.08317L24.9168 9.37463L9.08195 25.2249ZM27.2239 2.7761L27.6746 3.2261C27.9746 3.5261 28.1246 4.10634 28.1246 4.9661C28.1246 5.82512 27.7346 6.62122 26.9532 7.35366L26.25 8.04146L21.9578 3.75L22.6463 3.04756C22.9334 2.76511 23.2419 2.50531 23.569 2.27049C23.9305 2.00707 24.3746 1.87537 24.9022 1.87537C25.8498 1.87537 26.6239 2.1761 27.2239 2.7761ZM28.5644 8.39268C29.5215 7.43634 30 6.27878 30 4.9222C30 3.55463 29.5215 2.39268 28.5644 1.43561C27.6073 0.478537 26.4454 0 25.0778 0C23.7205 0 22.5637 0.478537 21.6066 1.43561L2.31439 20.7278L0 30L9.2722 27.6856L28.5644 8.39268Z" fill="#F9F9F9"/>
</svg>
