<svg width="30" height="20" viewBox="0 0 30 20" fill="none" xmlns="http://www.w3.org/2000/svg">
<path fill-rule="evenodd" clip-rule="evenodd" d="M27.4575 20H2.5425C1.14 20 0 18.8747 0 17.5019V2.49813C0 1.11778 1.14 0 2.5425 0H27.4575C28.86 0 30 1.11778 30 2.49813V17.5019C30 18.8822 28.86 20 27.4575 20ZM28.7475 2.49813C28.7475 1.80795 28.17 1.24531 27.4575 1.24531H2.5425C1.83 1.24531 1.2525 1.80795 1.2525 2.49813V4.37359H28.755V2.49813H28.7475ZM28.7475 6.87172H1.2525V17.5019C1.2525 18.1921 1.83 18.7547 2.5425 18.7547H27.4575C28.17 18.7547 28.7475 18.1921 28.7475 17.5019V6.87172ZM24.9975 16.2491H21.2475C20.9025 16.2491 20.625 15.9715 20.625 15.6264C20.625 15.2813 20.9025 15.0038 21.2475 15.0038H24.9975C25.3425 15.0038 25.62 15.2813 25.62 15.6264C25.62 15.9715 25.3425 16.2491 24.9975 16.2491Z" fill="#515151"/>
</svg>
