<svg width="11" height="11" viewBox="0 0 11 11" fill="none" xmlns="http://www.w3.org/2000/svg">
<path d="M8.21412 6.12326C8.01687 6.12326 7.85698 6.26401 7.85698 6.43765V9.58153C7.85698 9.75517 7.69708 9.89593 7.49983 9.89593H1.07141C0.87416 9.89593 0.714265 9.75517 0.714265 9.58153V3.29375C0.714265 3.12011 0.87416 2.97936 1.07141 2.97936H5.35704C5.55429 2.97936 5.71418 2.8386 5.71418 2.66496C5.71418 2.49132 5.55429 2.35059 5.35704 2.35059H1.07141C0.479685 2.35059 0 2.77286 0 3.29375V9.58153C0 10.1024 0.479685 10.5247 1.07141 10.5247H7.49985C8.09158 10.5247 8.57126 10.1024 8.57126 9.58153V6.43763C8.57126 6.26401 8.41137 6.12326 8.21412 6.12326Z" fill="#F9F9F9"/>
<path d="M10.4566 0.468762C10.2002 0.242991 9.85237 0.116179 9.48971 0.116216C9.12683 0.115295 8.77866 0.242328 8.52295 0.468964L3.81873 4.60976C3.77971 4.64438 3.75027 4.68645 3.73267 4.73269L3.0184 6.61902C2.95606 6.78377 3.05724 6.96179 3.24438 7.01665C3.28069 7.02729 3.31871 7.03273 3.35696 7.03277C3.3953 7.03271 3.4334 7.02729 3.46982 7.01674L5.61263 6.38797C5.66526 6.37249 5.71308 6.34645 5.75227 6.31189L10.4565 2.17076C10.9904 1.70079 10.9904 0.93878 10.4566 0.468762ZM9.95148 1.72651L5.3087 5.81357L3.92159 6.22133L4.38336 5.00181L9.02791 0.914758C9.28325 0.690424 9.69685 0.690793 9.95169 0.915569C10.0734 1.02295 10.142 1.16831 10.1425 1.32001C10.143 1.47252 10.0742 1.61885 9.95148 1.72651Z" fill="#F9F9F9"/>
</svg>
