<svg width="30" height="20" viewBox="0 0 30 20" fill="none" xmlns="http://www.w3.org/2000/svg">
<path d="M27.4933 0H2.50667C1.12 0 0 0.96 0 2.14286V17.8571C0 19.04 1.12 20 2.50667 20H27.4933C28.88 20 30 19.04 30 17.8571V2.14286C30 0.96 28.88 0 27.4933 0ZM2.82 2.14286H27.1867C27.36 2.14286 27.5 2.26286 27.5 2.41143V4.28571H2.50667V2.41143C2.50667 2.26286 2.64667 2.14286 2.82 2.14286ZM27.18 17.8571H2.82C2.64667 17.8571 2.50667 17.7371 2.50667 17.5886V10H27.4933V17.5886C27.4933 17.7371 27.3533 17.8571 27.18 17.8571ZM10 13.3943V15.1771C10 15.4743 9.72 15.7143 9.37333 15.7143H5.62C5.27333 15.7143 4.99333 15.4743 4.99333 15.1771V13.3943C4.99333 13.0971 5.27333 12.8571 5.62 12.8571H9.37333C9.72 12.8571 10 13.0971 10 13.3943ZM20 13.3943V15.1771C20 15.4743 19.72 15.7143 19.3733 15.7143H12.2933C11.9467 15.7143 11.6667 15.4743 11.6667 15.1771V13.3943C11.6667 13.0971 11.9467 12.8571 12.2933 12.8571H19.38C19.72 12.8571 20 13.0971 20 13.3943Z" fill="#515151"/>
</svg>
